<svg width="19" height="19" viewBox="0 0 19 19" fill="none" xmlns="http://www.w3.org/2000/svg">
<g clip-path="url(#clip0_8623_12587)">
<path d="M18.62 9.31C18.62 4.16826 14.4517 0 9.31 0C4.16826 0 0 4.16826 0 9.31C0 13.9569 3.40455 17.8085 7.85531 18.5069V12.0012H5.49145V9.31H7.85531V7.25889C7.85531 4.92557 9.24527 3.63672 11.3719 3.63672C12.3904 3.63672 13.4559 3.81855 13.4559 3.81855V6.10969H12.2819C11.1254 6.10969 10.7647 6.82736 10.7647 7.56365V9.31H13.3468L12.934 12.0012H10.7647V18.5069C15.2155 17.8085 18.62 13.9569 18.62 9.31Z" fill="#1877F2"/>
<path d="M12.9338 12.0012L13.3465 9.31H10.7645V7.56365C10.7645 6.82728 11.1251 6.10969 12.2817 6.10969H13.4556V3.81855C13.4556 3.81855 12.3902 3.63672 11.3716 3.63672C9.24503 3.63672 7.85508 4.92557 7.85508 7.25889V9.31H5.49121V12.0012H7.85508V18.5069C8.3363 18.5823 8.82267 18.6201 9.30977 18.62C9.79686 18.6201 10.2832 18.5823 10.7645 18.5069V12.0012H12.9338Z" fill="white"/>
</g>
<defs>
<clipPath id="clip0_8623_12587">
<rect width="18.62" height="18.62" fill="white"/>
</clipPath>
</defs>
</svg>
