<svg width="19" height="14" viewBox="0 0 19 14" fill="none" xmlns="http://www.w3.org/2000/svg">
<g clip-path="url(#clip0_8623_12592)">
<path d="M4.3182 13.93V6.75515L2.04154 4.71949L0 3.58984V12.6638C0 13.3644 0.580762 13.93 1.29549 13.93H4.3182Z" fill="#4285F4"/>
<path d="M14.6816 13.9299H17.7043C18.4212 13.9299 18.9998 13.3622 18.9998 12.6637V3.58984L16.6875 4.88372L14.6816 6.75508V13.9299Z" fill="#34A853"/>
<path d="M4.31858 6.75608L4.00879 3.95267L4.31858 1.26953L9.50038 5.06796L14.6822 1.26953L15.0287 3.80781L14.6822 6.75608L9.50038 10.5545L4.31858 6.75608Z" fill="#EA4335"/>
<path d="M14.6816 1.2697V6.75625L18.9998 3.59094V1.90274C18.9998 0.336993 17.1711 -0.555598 15.8908 0.383418L14.6816 1.2697Z" fill="#FBBC04"/>
<path d="M0 3.59097L1.98602 5.04683L4.3182 6.75628V1.26973L3.10902 0.383451C1.82652 -0.555637 0 0.337026 0 1.90271V3.59097Z" fill="#C5221F"/>
</g>
<defs>
<clipPath id="clip0_8623_12592">
<rect width="19" height="14" fill="white"/>
</clipPath>
</defs>
</svg>
