<svg width="20" height="24" viewBox="0 0 20 24" fill="none" xmlns="http://www.w3.org/2000/svg">
<g clip-path="url(#clip0_8623_12581)">
<path d="M-1.48938 11.8563C-1.48994 13.8728 -0.958938 15.8417 0.05075 17.5771L-1.58594 23.5066L4.52956 21.9156C6.22104 22.8292 8.1162 23.308 10.0421 23.3081H10.0471C16.4048 23.3081 21.5801 18.1748 21.5828 11.8653C21.584 8.80792 20.3851 5.93295 18.2069 3.76997C16.0291 1.60718 13.1327 0.415458 10.0467 0.414062C3.68825 0.414062 -1.48666 5.54709 -1.48928 11.8563" fill="url(#paint0_linear_8623_12581)"/>
<path d="M-1.89969 11.8527C-1.90034 13.9417 -1.35031 15.981 -0.304625 17.7786L-2 23.9207L4.33478 22.2726C6.08022 23.2168 8.04541 23.7147 10.0451 23.7154H10.0502C16.636 23.7154 21.9972 18.3975 22 11.8621C22.0011 8.69488 20.7591 5.71656 18.5031 3.47609C16.2468 1.23591 13.2468 0.00130233 10.0502 0C3.46337 0 -1.89706 5.31721 -1.89969 11.8527ZM1.87291 17.469L1.63637 17.0965C0.642062 15.5277 0.11725 13.7149 0.118 11.8534C0.120062 6.4213 4.57544 2.00186 10.054 2.00186C12.7071 2.00298 15.2005 3.02921 17.0759 4.89116C18.9512 6.7533 19.9831 9.22865 19.9824 11.8614C19.98 17.2935 15.5245 21.7135 10.0502 21.7135H10.0463C8.26384 21.7126 6.51569 21.2376 4.99113 20.34L4.62831 20.1265L0.869125 21.1045L1.87291 17.469Z" fill="url(#paint1_linear_8623_12581)"/>
<path d="M7.06187 6.89771C6.83819 6.4044 6.60278 6.39445 6.39006 6.3858C6.21587 6.37836 6.01675 6.37892 5.81781 6.37892C5.61869 6.37892 5.29516 6.45324 5.02169 6.74952C4.74794 7.04608 3.97656 7.76273 3.97656 9.22031C3.97656 10.6779 5.04653 12.0866 5.19569 12.2845C5.34503 12.482 7.26128 15.5689 10.2962 16.7564C12.8184 17.7433 13.3317 17.547 13.8791 17.4975C14.4266 17.4482 15.6457 16.7811 15.8944 16.0892C16.1433 15.3975 16.1433 14.8046 16.0687 14.6807C15.9941 14.5572 15.795 14.4831 15.4964 14.335C15.1978 14.1869 13.7297 13.4701 13.4561 13.3712C13.1823 13.2724 12.9833 13.2231 12.7842 13.5198C12.5851 13.8159 12.0133 14.4831 11.839 14.6807C11.6649 14.8787 11.4906 14.9034 11.1921 14.7552C10.8933 14.6065 9.93175 14.2941 8.79091 13.2849C7.90328 12.4996 7.30403 11.5298 7.12984 11.2331C6.95566 10.937 7.11119 10.7764 7.26091 10.6288C7.39506 10.496 7.55959 10.2828 7.70903 10.1099C7.85791 9.93687 7.90759 9.81343 8.00716 9.61585C8.10681 9.41808 8.05694 9.24506 7.98241 9.09687C7.90759 8.94868 7.32737 7.48347 7.06187 6.89771Z" fill="white"/>
</g>
<defs>
<linearGradient id="paint0_linear_8623_12581" x1="1156.85" y1="2309.67" x2="1156.85" y2="0.414062" gradientUnits="userSpaceOnUse">
<stop stop-color="#1FAF38"/>
<stop offset="1" stop-color="#60D669"/>
</linearGradient>
<linearGradient id="paint1_linear_8623_12581" x1="1198" y1="2392.07" x2="1198" y2="0" gradientUnits="userSpaceOnUse">
<stop stop-color="#F9F9F9"/>
<stop offset="1" stop-color="white"/>
</linearGradient>
<clipPath id="clip0_8623_12581">
<rect width="20" height="24" fill="white"/>
</clipPath>
</defs>
</svg>
