<svg width="41" height="1025" viewBox="0 0 41 1025" fill="none" xmlns="http://www.w3.org/2000/svg">
<g clip-path="url(#clip0_6688_645)">
<path d="M0 8C0 3.58172 3.58172 0 8 0H33C37.4183 0 41 3.58172 41 8V65H0V8Z" fill="#E0E0E0"/>
<path fill-rule="evenodd" clip-rule="evenodd" d="M3.29688 -0.0625C14.6804 -0.0625 26.0638 -0.0625 37.4473 -0.0625C37.4473 21.6042 37.4473 43.2708 37.4473 64.9375C26.0638 64.9375 14.6804 64.9375 3.29688 64.9375C3.29688 43.2708 3.29688 21.6042 3.29688 -0.0625Z" fill="#DCDCDC"/>
<path fill-rule="evenodd" clip-rule="evenodd" d="M18.7872 4.25391C18.7872 7.97786 18.7872 11.7018 18.7872 15.4258C19.8451 15.4258 20.9031 15.4258 21.961 15.4258C21.961 11.7018 21.961 7.97786 21.961 4.25391C22.0877 7.99843 22.13 11.7647 22.088 15.5527C20.9454 15.5527 19.8028 15.5527 18.6602 15.5527C18.6182 11.7647 18.6605 7.99843 18.7872 4.25391Z" fill="white"/>
<path fill-rule="evenodd" clip-rule="evenodd" d="M18.7852 4.25391C19.8431 4.25391 20.9011 4.25391 21.959 4.25391C21.959 7.97786 21.959 11.7018 21.959 15.4258C20.9011 15.4258 19.8431 15.4258 18.7852 15.4258C18.7852 11.7018 18.7852 7.97786 18.7852 4.25391Z" fill="white"/>
<path fill-rule="evenodd" clip-rule="evenodd" d="M18.7852 19.3594C19.8431 19.3594 20.9011 19.3594 21.959 19.3594C21.959 23.0833 21.959 26.8073 21.959 30.5312C20.9011 30.5312 19.8431 30.5312 18.7852 30.5312C18.7852 26.8073 18.7852 23.0833 18.7852 19.3594Z" fill="white"/>
<path fill-rule="evenodd" clip-rule="evenodd" d="M18.7852 34.3398C19.8431 34.3398 20.9011 34.3398 21.959 34.3398C21.959 38.0638 21.959 41.7878 21.959 45.5117C20.9011 45.5117 19.8431 45.5117 18.7852 45.5117C18.7852 41.7878 18.7852 38.0638 18.7852 34.3398Z" fill="white"/>
<path fill-rule="evenodd" clip-rule="evenodd" d="M21.961 60.6191C21.961 56.8952 21.961 53.1712 21.961 49.4473C20.9031 49.4473 19.8451 49.4473 18.7872 49.4473C18.7872 53.1712 18.7872 56.8952 18.7872 60.6191C18.6605 56.8747 18.6182 53.1083 18.6602 49.3203C19.8028 49.3203 20.9454 49.3203 22.088 49.3203C22.13 53.1083 22.0877 56.8747 21.961 60.6191Z" fill="white"/>
<path fill-rule="evenodd" clip-rule="evenodd" d="M21.959 60.6211C20.9011 60.6211 19.8431 60.6211 18.7852 60.6211C18.7852 56.8972 18.7852 53.1731 18.7852 49.4492C19.8431 49.4492 20.9011 49.4492 21.959 49.4492C21.959 53.1731 21.959 56.8972 21.959 60.6211Z" fill="white"/>
</g>
<g clip-path="url(#clip1_6688_645)">
<rect width="41" height="65" transform="translate(0 64)" fill="#E0E0E0"/>
<path fill-rule="evenodd" clip-rule="evenodd" d="M3.29688 63.9375C14.6804 63.9375 26.0638 63.9375 37.4473 63.9375C37.4473 85.6042 37.4473 107.271 37.4473 128.938C26.0638 128.938 14.6804 128.938 3.29688 128.938C3.29688 107.271 3.29688 85.6042 3.29688 63.9375Z" fill="#DCDCDC"/>
<path fill-rule="evenodd" clip-rule="evenodd" d="M18.7872 68.2539C18.7872 71.9779 18.7872 75.7018 18.7872 79.4258C19.8451 79.4258 20.9031 79.4258 21.961 79.4258C21.961 75.7018 21.961 71.9779 21.961 68.2539C22.0877 71.9984 22.13 75.7647 22.088 79.5527C20.9454 79.5527 19.8028 79.5527 18.6602 79.5527C18.6182 75.7647 18.6605 71.9984 18.7872 68.2539Z" fill="white"/>
<path fill-rule="evenodd" clip-rule="evenodd" d="M18.7852 68.2539C19.8431 68.2539 20.9011 68.2539 21.959 68.2539C21.959 71.9779 21.959 75.7018 21.959 79.4258C20.9011 79.4258 19.8431 79.4258 18.7852 79.4258C18.7852 75.7018 18.7852 71.9779 18.7852 68.2539Z" fill="white"/>
<path fill-rule="evenodd" clip-rule="evenodd" d="M18.7852 83.3594C19.8431 83.3594 20.9011 83.3594 21.959 83.3594C21.959 87.0833 21.959 90.8073 21.959 94.5312C20.9011 94.5312 19.8431 94.5312 18.7852 94.5312C18.7852 90.8073 18.7852 87.0833 18.7852 83.3594Z" fill="white"/>
<path fill-rule="evenodd" clip-rule="evenodd" d="M18.7852 98.3398C19.8431 98.3398 20.9011 98.3398 21.959 98.3398C21.959 102.064 21.959 105.788 21.959 109.512C20.9011 109.512 19.8431 109.512 18.7852 109.512C18.7852 105.788 18.7852 102.064 18.7852 98.3398Z" fill="white"/>
<path fill-rule="evenodd" clip-rule="evenodd" d="M21.961 124.619C21.961 120.895 21.961 117.171 21.961 113.447C20.9031 113.447 19.8451 113.447 18.7872 113.447C18.7872 117.171 18.7872 120.895 18.7872 124.619C18.6605 120.875 18.6182 117.108 18.6602 113.32C19.8028 113.32 20.9454 113.32 22.088 113.32C22.13 117.108 22.0877 120.875 21.961 124.619Z" fill="white"/>
<path fill-rule="evenodd" clip-rule="evenodd" d="M21.959 124.621C20.9011 124.621 19.8431 124.621 18.7852 124.621C18.7852 120.897 18.7852 117.173 18.7852 113.449C19.8431 113.449 20.9011 113.449 21.959 113.449C21.959 117.173 21.959 120.897 21.959 124.621Z" fill="white"/>
</g>
<g clip-path="url(#clip2_6688_645)">
<rect width="41" height="65" transform="translate(0 128)" fill="#E0E0E0"/>
<path fill-rule="evenodd" clip-rule="evenodd" d="M3.29688 127.938C14.6804 127.938 26.0638 127.938 37.4473 127.938C37.4473 149.604 37.4473 171.271 37.4473 192.938C26.0638 192.938 14.6804 192.938 3.29688 192.938C3.29688 171.271 3.29688 149.604 3.29688 127.938Z" fill="#DCDCDC"/>
<path fill-rule="evenodd" clip-rule="evenodd" d="M18.7872 132.254C18.7872 135.978 18.7872 139.702 18.7872 143.426C19.8451 143.426 20.9031 143.426 21.961 143.426C21.961 139.702 21.961 135.978 21.961 132.254C22.0877 135.998 22.13 139.765 22.088 143.553C20.9454 143.553 19.8028 143.553 18.6602 143.553C18.6182 139.765 18.6605 135.998 18.7872 132.254Z" fill="white"/>
<path fill-rule="evenodd" clip-rule="evenodd" d="M18.7852 132.254C19.8431 132.254 20.9011 132.254 21.959 132.254C21.959 135.978 21.959 139.702 21.959 143.426C20.9011 143.426 19.8431 143.426 18.7852 143.426C18.7852 139.702 18.7852 135.978 18.7852 132.254Z" fill="white"/>
<path fill-rule="evenodd" clip-rule="evenodd" d="M18.7852 147.359C19.8431 147.359 20.9011 147.359 21.959 147.359C21.959 151.083 21.959 154.807 21.959 158.531C20.9011 158.531 19.8431 158.531 18.7852 158.531C18.7852 154.807 18.7852 151.083 18.7852 147.359Z" fill="white"/>
<path fill-rule="evenodd" clip-rule="evenodd" d="M18.7852 162.34C19.8431 162.34 20.9011 162.34 21.959 162.34C21.959 166.064 21.959 169.788 21.959 173.512C20.9011 173.512 19.8431 173.512 18.7852 173.512C18.7852 169.788 18.7852 166.064 18.7852 162.34Z" fill="white"/>
<path fill-rule="evenodd" clip-rule="evenodd" d="M21.961 188.619C21.961 184.895 21.961 181.171 21.961 177.447C20.9031 177.447 19.8451 177.447 18.7872 177.447C18.7872 181.171 18.7872 184.895 18.7872 188.619C18.6605 184.875 18.6182 181.108 18.6602 177.32C19.8028 177.32 20.9454 177.32 22.088 177.32C22.13 181.108 22.0877 184.875 21.961 188.619Z" fill="white"/>
<path fill-rule="evenodd" clip-rule="evenodd" d="M21.959 188.621C20.9011 188.621 19.8431 188.621 18.7852 188.621C18.7852 184.897 18.7852 181.173 18.7852 177.449C19.8431 177.449 20.9011 177.449 21.959 177.449C21.959 181.173 21.959 184.897 21.959 188.621Z" fill="white"/>
</g>
<g clip-path="url(#clip3_6688_645)">
<rect width="41" height="65" transform="translate(0 192)" fill="#E0E0E0"/>
<path fill-rule="evenodd" clip-rule="evenodd" d="M3.29688 191.938C14.6804 191.938 26.0638 191.938 37.4473 191.938C37.4473 213.604 37.4473 235.271 37.4473 256.938C26.0638 256.938 14.6804 256.938 3.29688 256.938C3.29688 235.271 3.29688 213.604 3.29688 191.938Z" fill="#DCDCDC"/>
<path fill-rule="evenodd" clip-rule="evenodd" d="M18.7872 196.254C18.7872 199.978 18.7872 203.702 18.7872 207.426C19.8451 207.426 20.9031 207.426 21.961 207.426C21.961 203.702 21.961 199.978 21.961 196.254C22.0877 199.998 22.13 203.765 22.088 207.553C20.9454 207.553 19.8028 207.553 18.6602 207.553C18.6182 203.765 18.6605 199.998 18.7872 196.254Z" fill="white"/>
<path fill-rule="evenodd" clip-rule="evenodd" d="M18.7852 196.254C19.8431 196.254 20.9011 196.254 21.959 196.254C21.959 199.978 21.959 203.702 21.959 207.426C20.9011 207.426 19.8431 207.426 18.7852 207.426C18.7852 203.702 18.7852 199.978 18.7852 196.254Z" fill="white"/>
<path fill-rule="evenodd" clip-rule="evenodd" d="M18.7852 211.359C19.8431 211.359 20.9011 211.359 21.959 211.359C21.959 215.083 21.959 218.807 21.959 222.531C20.9011 222.531 19.8431 222.531 18.7852 222.531C18.7852 218.807 18.7852 215.083 18.7852 211.359Z" fill="white"/>
<path fill-rule="evenodd" clip-rule="evenodd" d="M18.7852 226.34C19.8431 226.34 20.9011 226.34 21.959 226.34C21.959 230.064 21.959 233.788 21.959 237.512C20.9011 237.512 19.8431 237.512 18.7852 237.512C18.7852 233.788 18.7852 230.064 18.7852 226.34Z" fill="white"/>
<path fill-rule="evenodd" clip-rule="evenodd" d="M21.961 252.619C21.961 248.895 21.961 245.171 21.961 241.447C20.9031 241.447 19.8451 241.447 18.7872 241.447C18.7872 245.171 18.7872 248.895 18.7872 252.619C18.6605 248.875 18.6182 245.108 18.6602 241.32C19.8028 241.32 20.9454 241.32 22.088 241.32C22.13 245.108 22.0877 248.875 21.961 252.619Z" fill="white"/>
<path fill-rule="evenodd" clip-rule="evenodd" d="M21.959 252.621C20.9011 252.621 19.8431 252.621 18.7852 252.621C18.7852 248.897 18.7852 245.173 18.7852 241.449C19.8431 241.449 20.9011 241.449 21.959 241.449C21.959 245.173 21.959 248.897 21.959 252.621Z" fill="white"/>
</g>
<g clip-path="url(#clip4_6688_645)">
<rect width="41" height="65" transform="translate(0 256)" fill="#E0E0E0"/>
<path fill-rule="evenodd" clip-rule="evenodd" d="M3.29688 255.938C14.6804 255.938 26.0638 255.938 37.4473 255.938C37.4473 277.604 37.4473 299.271 37.4473 320.938C26.0638 320.938 14.6804 320.938 3.29688 320.938C3.29688 299.271 3.29688 277.604 3.29688 255.938Z" fill="#DCDCDC"/>
<path fill-rule="evenodd" clip-rule="evenodd" d="M18.7872 260.254C18.7872 263.978 18.7872 267.702 18.7872 271.426C19.8451 271.426 20.9031 271.426 21.961 271.426C21.961 267.702 21.961 263.978 21.961 260.254C22.0877 263.998 22.13 267.765 22.088 271.553C20.9454 271.553 19.8028 271.553 18.6602 271.553C18.6182 267.765 18.6605 263.998 18.7872 260.254Z" fill="white"/>
<path fill-rule="evenodd" clip-rule="evenodd" d="M18.7852 260.254C19.8431 260.254 20.9011 260.254 21.959 260.254C21.959 263.978 21.959 267.702 21.959 271.426C20.9011 271.426 19.8431 271.426 18.7852 271.426C18.7852 267.702 18.7852 263.978 18.7852 260.254Z" fill="white"/>
<path fill-rule="evenodd" clip-rule="evenodd" d="M18.7852 275.359C19.8431 275.359 20.9011 275.359 21.959 275.359C21.959 279.083 21.959 282.807 21.959 286.531C20.9011 286.531 19.8431 286.531 18.7852 286.531C18.7852 282.807 18.7852 279.083 18.7852 275.359Z" fill="white"/>
<path fill-rule="evenodd" clip-rule="evenodd" d="M18.7852 290.34C19.8431 290.34 20.9011 290.34 21.959 290.34C21.959 294.064 21.959 297.788 21.959 301.512C20.9011 301.512 19.8431 301.512 18.7852 301.512C18.7852 297.788 18.7852 294.064 18.7852 290.34Z" fill="white"/>
<path fill-rule="evenodd" clip-rule="evenodd" d="M21.961 316.619C21.961 312.895 21.961 309.171 21.961 305.447C20.9031 305.447 19.8451 305.447 18.7872 305.447C18.7872 309.171 18.7872 312.895 18.7872 316.619C18.6605 312.875 18.6182 309.108 18.6602 305.32C19.8028 305.32 20.9454 305.32 22.088 305.32C22.13 309.108 22.0877 312.875 21.961 316.619Z" fill="white"/>
<path fill-rule="evenodd" clip-rule="evenodd" d="M21.959 316.621C20.9011 316.621 19.8431 316.621 18.7852 316.621C18.7852 312.897 18.7852 309.173 18.7852 305.449C19.8431 305.449 20.9011 305.449 21.959 305.449C21.959 309.173 21.959 312.897 21.959 316.621Z" fill="white"/>
</g>
<g clip-path="url(#clip5_6688_645)">
<rect width="41" height="65" transform="translate(0 320)" fill="#E0E0E0"/>
<path fill-rule="evenodd" clip-rule="evenodd" d="M3.29688 319.938C14.6804 319.938 26.0638 319.938 37.4473 319.938C37.4473 341.604 37.4473 363.271 37.4473 384.938C26.0638 384.938 14.6804 384.938 3.29688 384.938C3.29688 363.271 3.29688 341.604 3.29688 319.938Z" fill="#DCDCDC"/>
<path fill-rule="evenodd" clip-rule="evenodd" d="M18.7872 324.254C18.7872 327.978 18.7872 331.702 18.7872 335.426C19.8451 335.426 20.9031 335.426 21.961 335.426C21.961 331.702 21.961 327.978 21.961 324.254C22.0877 327.998 22.13 331.765 22.088 335.553C20.9454 335.553 19.8028 335.553 18.6602 335.553C18.6182 331.765 18.6605 327.998 18.7872 324.254Z" fill="white"/>
<path fill-rule="evenodd" clip-rule="evenodd" d="M18.7852 324.254C19.8431 324.254 20.9011 324.254 21.959 324.254C21.959 327.978 21.959 331.702 21.959 335.426C20.9011 335.426 19.8431 335.426 18.7852 335.426C18.7852 331.702 18.7852 327.978 18.7852 324.254Z" fill="white"/>
<path fill-rule="evenodd" clip-rule="evenodd" d="M18.7852 339.359C19.8431 339.359 20.9011 339.359 21.959 339.359C21.959 343.083 21.959 346.807 21.959 350.531C20.9011 350.531 19.8431 350.531 18.7852 350.531C18.7852 346.807 18.7852 343.083 18.7852 339.359Z" fill="white"/>
<path fill-rule="evenodd" clip-rule="evenodd" d="M18.7852 354.34C19.8431 354.34 20.9011 354.34 21.959 354.34C21.959 358.064 21.959 361.788 21.959 365.512C20.9011 365.512 19.8431 365.512 18.7852 365.512C18.7852 361.788 18.7852 358.064 18.7852 354.34Z" fill="white"/>
<path fill-rule="evenodd" clip-rule="evenodd" d="M21.961 380.619C21.961 376.895 21.961 373.171 21.961 369.447C20.9031 369.447 19.8451 369.447 18.7872 369.447C18.7872 373.171 18.7872 376.895 18.7872 380.619C18.6605 376.875 18.6182 373.108 18.6602 369.32C19.8028 369.32 20.9454 369.32 22.088 369.32C22.13 373.108 22.0877 376.875 21.961 380.619Z" fill="white"/>
<path fill-rule="evenodd" clip-rule="evenodd" d="M21.959 380.621C20.9011 380.621 19.8431 380.621 18.7852 380.621C18.7852 376.897 18.7852 373.173 18.7852 369.449C19.8431 369.449 20.9011 369.449 21.959 369.449C21.959 373.173 21.959 376.897 21.959 380.621Z" fill="white"/>
</g>
<g clip-path="url(#clip6_6688_645)">
<rect width="41" height="65" transform="translate(0 384)" fill="#E0E0E0"/>
<path fill-rule="evenodd" clip-rule="evenodd" d="M3.29688 383.938C14.6804 383.938 26.0638 383.938 37.4473 383.938C37.4473 405.604 37.4473 427.271 37.4473 448.938C26.0638 448.938 14.6804 448.938 3.29688 448.938C3.29688 427.271 3.29688 405.604 3.29688 383.938Z" fill="#DCDCDC"/>
<path fill-rule="evenodd" clip-rule="evenodd" d="M18.7872 388.254C18.7872 391.978 18.7872 395.702 18.7872 399.426C19.8451 399.426 20.9031 399.426 21.961 399.426C21.961 395.702 21.961 391.978 21.961 388.254C22.0877 391.998 22.13 395.765 22.088 399.553C20.9454 399.553 19.8028 399.553 18.6602 399.553C18.6182 395.765 18.6605 391.998 18.7872 388.254Z" fill="white"/>
<path fill-rule="evenodd" clip-rule="evenodd" d="M18.7852 388.254C19.8431 388.254 20.9011 388.254 21.959 388.254C21.959 391.978 21.959 395.702 21.959 399.426C20.9011 399.426 19.8431 399.426 18.7852 399.426C18.7852 395.702 18.7852 391.978 18.7852 388.254Z" fill="white"/>
<path fill-rule="evenodd" clip-rule="evenodd" d="M18.7852 403.359C19.8431 403.359 20.9011 403.359 21.959 403.359C21.959 407.083 21.959 410.807 21.959 414.531C20.9011 414.531 19.8431 414.531 18.7852 414.531C18.7852 410.807 18.7852 407.083 18.7852 403.359Z" fill="white"/>
<path fill-rule="evenodd" clip-rule="evenodd" d="M18.7852 418.34C19.8431 418.34 20.9011 418.34 21.959 418.34C21.959 422.064 21.959 425.788 21.959 429.512C20.9011 429.512 19.8431 429.512 18.7852 429.512C18.7852 425.788 18.7852 422.064 18.7852 418.34Z" fill="white"/>
<path fill-rule="evenodd" clip-rule="evenodd" d="M21.961 444.619C21.961 440.895 21.961 437.171 21.961 433.447C20.9031 433.447 19.8451 433.447 18.7872 433.447C18.7872 437.171 18.7872 440.895 18.7872 444.619C18.6605 440.875 18.6182 437.108 18.6602 433.32C19.8028 433.32 20.9454 433.32 22.088 433.32C22.13 437.108 22.0877 440.875 21.961 444.619Z" fill="white"/>
<path fill-rule="evenodd" clip-rule="evenodd" d="M21.959 444.621C20.9011 444.621 19.8431 444.621 18.7852 444.621C18.7852 440.897 18.7852 437.173 18.7852 433.449C19.8431 433.449 20.9011 433.449 21.959 433.449C21.959 437.173 21.959 440.897 21.959 444.621Z" fill="white"/>
</g>
<g clip-path="url(#clip7_6688_645)">
<rect width="41" height="65" transform="translate(0 448)" fill="#E0E0E0"/>
<path fill-rule="evenodd" clip-rule="evenodd" d="M3.29688 447.938C14.6804 447.938 26.0638 447.938 37.4473 447.938C37.4473 469.604 37.4473 491.271 37.4473 512.938C26.0638 512.938 14.6804 512.938 3.29688 512.938C3.29688 491.271 3.29688 469.604 3.29688 447.938Z" fill="#DCDCDC"/>
<path fill-rule="evenodd" clip-rule="evenodd" d="M18.7872 452.254C18.7872 455.978 18.7872 459.702 18.7872 463.426C19.8451 463.426 20.9031 463.426 21.961 463.426C21.961 459.702 21.961 455.978 21.961 452.254C22.0877 455.998 22.13 459.765 22.088 463.553C20.9454 463.553 19.8028 463.553 18.6602 463.553C18.6182 459.765 18.6605 455.998 18.7872 452.254Z" fill="white"/>
<path fill-rule="evenodd" clip-rule="evenodd" d="M18.7852 452.254C19.8431 452.254 20.9011 452.254 21.959 452.254C21.959 455.978 21.959 459.702 21.959 463.426C20.9011 463.426 19.8431 463.426 18.7852 463.426C18.7852 459.702 18.7852 455.978 18.7852 452.254Z" fill="white"/>
<path fill-rule="evenodd" clip-rule="evenodd" d="M18.7852 467.359C19.8431 467.359 20.9011 467.359 21.959 467.359C21.959 471.083 21.959 474.807 21.959 478.531C20.9011 478.531 19.8431 478.531 18.7852 478.531C18.7852 474.807 18.7852 471.083 18.7852 467.359Z" fill="white"/>
<path fill-rule="evenodd" clip-rule="evenodd" d="M18.7852 482.34C19.8431 482.34 20.9011 482.34 21.959 482.34C21.959 486.064 21.959 489.788 21.959 493.512C20.9011 493.512 19.8431 493.512 18.7852 493.512C18.7852 489.788 18.7852 486.064 18.7852 482.34Z" fill="white"/>
<path fill-rule="evenodd" clip-rule="evenodd" d="M21.961 508.619C21.961 504.895 21.961 501.171 21.961 497.447C20.9031 497.447 19.8451 497.447 18.7872 497.447C18.7872 501.171 18.7872 504.895 18.7872 508.619C18.6605 504.875 18.6182 501.108 18.6602 497.32C19.8028 497.32 20.9454 497.32 22.088 497.32C22.13 501.108 22.0877 504.875 21.961 508.619Z" fill="white"/>
<path fill-rule="evenodd" clip-rule="evenodd" d="M21.959 508.621C20.9011 508.621 19.8431 508.621 18.7852 508.621C18.7852 504.897 18.7852 501.173 18.7852 497.449C19.8431 497.449 20.9011 497.449 21.959 497.449C21.959 501.173 21.959 504.897 21.959 508.621Z" fill="white"/>
</g>
<g clip-path="url(#clip8_6688_645)">
<rect width="41" height="65" transform="translate(0 512)" fill="#E0E0E0"/>
<path fill-rule="evenodd" clip-rule="evenodd" d="M3.29688 511.938C14.6804 511.938 26.0638 511.938 37.4473 511.938C37.4473 533.604 37.4473 555.271 37.4473 576.938C26.0638 576.938 14.6804 576.938 3.29688 576.938C3.29688 555.271 3.29688 533.604 3.29688 511.938Z" fill="#DCDCDC"/>
<path fill-rule="evenodd" clip-rule="evenodd" d="M18.7872 516.254C18.7872 519.978 18.7872 523.702 18.7872 527.426C19.8451 527.426 20.9031 527.426 21.961 527.426C21.961 523.702 21.961 519.978 21.961 516.254C22.0877 519.998 22.13 523.765 22.088 527.553C20.9454 527.553 19.8028 527.553 18.6602 527.553C18.6182 523.765 18.6605 519.998 18.7872 516.254Z" fill="white"/>
<path fill-rule="evenodd" clip-rule="evenodd" d="M18.7852 516.254C19.8431 516.254 20.9011 516.254 21.959 516.254C21.959 519.978 21.959 523.702 21.959 527.426C20.9011 527.426 19.8431 527.426 18.7852 527.426C18.7852 523.702 18.7852 519.978 18.7852 516.254Z" fill="white"/>
<path fill-rule="evenodd" clip-rule="evenodd" d="M18.7852 531.359C19.8431 531.359 20.9011 531.359 21.959 531.359C21.959 535.083 21.959 538.807 21.959 542.531C20.9011 542.531 19.8431 542.531 18.7852 542.531C18.7852 538.807 18.7852 535.083 18.7852 531.359Z" fill="white"/>
<path fill-rule="evenodd" clip-rule="evenodd" d="M18.7852 546.34C19.8431 546.34 20.9011 546.34 21.959 546.34C21.959 550.064 21.959 553.788 21.959 557.512C20.9011 557.512 19.8431 557.512 18.7852 557.512C18.7852 553.788 18.7852 550.064 18.7852 546.34Z" fill="white"/>
<path fill-rule="evenodd" clip-rule="evenodd" d="M21.961 572.619C21.961 568.895 21.961 565.171 21.961 561.447C20.9031 561.447 19.8451 561.447 18.7872 561.447C18.7872 565.171 18.7872 568.895 18.7872 572.619C18.6605 568.875 18.6182 565.108 18.6602 561.32C19.8028 561.32 20.9454 561.32 22.088 561.32C22.13 565.108 22.0877 568.875 21.961 572.619Z" fill="white"/>
<path fill-rule="evenodd" clip-rule="evenodd" d="M21.959 572.621C20.9011 572.621 19.8431 572.621 18.7852 572.621C18.7852 568.897 18.7852 565.173 18.7852 561.449C19.8431 561.449 20.9011 561.449 21.959 561.449C21.959 565.173 21.959 568.897 21.959 572.621Z" fill="white"/>
</g>
<g clip-path="url(#clip9_6688_645)">
<rect width="41" height="65" transform="translate(0 576)" fill="#E0E0E0"/>
<path fill-rule="evenodd" clip-rule="evenodd" d="M3.29688 575.938C14.6804 575.938 26.0638 575.938 37.4473 575.938C37.4473 597.604 37.4473 619.271 37.4473 640.938C26.0638 640.938 14.6804 640.938 3.29688 640.938C3.29688 619.271 3.29688 597.604 3.29688 575.938Z" fill="#DCDCDC"/>
<path fill-rule="evenodd" clip-rule="evenodd" d="M18.7872 580.254C18.7872 583.978 18.7872 587.702 18.7872 591.426C19.8451 591.426 20.9031 591.426 21.961 591.426C21.961 587.702 21.961 583.978 21.961 580.254C22.0877 583.998 22.13 587.765 22.088 591.553C20.9454 591.553 19.8028 591.553 18.6602 591.553C18.6182 587.765 18.6605 583.998 18.7872 580.254Z" fill="white"/>
<path fill-rule="evenodd" clip-rule="evenodd" d="M18.7852 580.254C19.8431 580.254 20.9011 580.254 21.959 580.254C21.959 583.978 21.959 587.702 21.959 591.426C20.9011 591.426 19.8431 591.426 18.7852 591.426C18.7852 587.702 18.7852 583.978 18.7852 580.254Z" fill="white"/>
<path fill-rule="evenodd" clip-rule="evenodd" d="M18.7852 595.359C19.8431 595.359 20.9011 595.359 21.959 595.359C21.959 599.083 21.959 602.807 21.959 606.531C20.9011 606.531 19.8431 606.531 18.7852 606.531C18.7852 602.807 18.7852 599.083 18.7852 595.359Z" fill="white"/>
<path fill-rule="evenodd" clip-rule="evenodd" d="M18.7852 610.34C19.8431 610.34 20.9011 610.34 21.959 610.34C21.959 614.064 21.959 617.788 21.959 621.512C20.9011 621.512 19.8431 621.512 18.7852 621.512C18.7852 617.788 18.7852 614.064 18.7852 610.34Z" fill="white"/>
<path fill-rule="evenodd" clip-rule="evenodd" d="M21.961 636.619C21.961 632.895 21.961 629.171 21.961 625.447C20.9031 625.447 19.8451 625.447 18.7872 625.447C18.7872 629.171 18.7872 632.895 18.7872 636.619C18.6605 632.875 18.6182 629.108 18.6602 625.32C19.8028 625.32 20.9454 625.32 22.088 625.32C22.13 629.108 22.0877 632.875 21.961 636.619Z" fill="white"/>
<path fill-rule="evenodd" clip-rule="evenodd" d="M21.959 636.621C20.9011 636.621 19.8431 636.621 18.7852 636.621C18.7852 632.897 18.7852 629.173 18.7852 625.449C19.8431 625.449 20.9011 625.449 21.959 625.449C21.959 629.173 21.959 632.897 21.959 636.621Z" fill="white"/>
</g>
<g clip-path="url(#clip10_6688_645)">
<rect width="41" height="65" transform="translate(0 640)" fill="#E0E0E0"/>
<path fill-rule="evenodd" clip-rule="evenodd" d="M3.29688 639.938C14.6804 639.938 26.0638 639.938 37.4473 639.938C37.4473 661.604 37.4473 683.271 37.4473 704.938C26.0638 704.938 14.6804 704.938 3.29688 704.938C3.29688 683.271 3.29688 661.604 3.29688 639.938Z" fill="#DCDCDC"/>
<path fill-rule="evenodd" clip-rule="evenodd" d="M18.7872 644.254C18.7872 647.978 18.7872 651.702 18.7872 655.426C19.8451 655.426 20.9031 655.426 21.961 655.426C21.961 651.702 21.961 647.978 21.961 644.254C22.0877 647.998 22.13 651.765 22.088 655.553C20.9454 655.553 19.8028 655.553 18.6602 655.553C18.6182 651.765 18.6605 647.998 18.7872 644.254Z" fill="white"/>
<path fill-rule="evenodd" clip-rule="evenodd" d="M18.7852 644.254C19.8431 644.254 20.9011 644.254 21.959 644.254C21.959 647.978 21.959 651.702 21.959 655.426C20.9011 655.426 19.8431 655.426 18.7852 655.426C18.7852 651.702 18.7852 647.978 18.7852 644.254Z" fill="white"/>
<path fill-rule="evenodd" clip-rule="evenodd" d="M18.7852 659.359C19.8431 659.359 20.9011 659.359 21.959 659.359C21.959 663.083 21.959 666.807 21.959 670.531C20.9011 670.531 19.8431 670.531 18.7852 670.531C18.7852 666.807 18.7852 663.083 18.7852 659.359Z" fill="white"/>
<path fill-rule="evenodd" clip-rule="evenodd" d="M18.7852 674.34C19.8431 674.34 20.9011 674.34 21.959 674.34C21.959 678.064 21.959 681.788 21.959 685.512C20.9011 685.512 19.8431 685.512 18.7852 685.512C18.7852 681.788 18.7852 678.064 18.7852 674.34Z" fill="white"/>
<path fill-rule="evenodd" clip-rule="evenodd" d="M21.961 700.619C21.961 696.895 21.961 693.171 21.961 689.447C20.9031 689.447 19.8451 689.447 18.7872 689.447C18.7872 693.171 18.7872 696.895 18.7872 700.619C18.6605 696.875 18.6182 693.108 18.6602 689.32C19.8028 689.32 20.9454 689.32 22.088 689.32C22.13 693.108 22.0877 696.875 21.961 700.619Z" fill="white"/>
<path fill-rule="evenodd" clip-rule="evenodd" d="M21.959 700.621C20.9011 700.621 19.8431 700.621 18.7852 700.621C18.7852 696.897 18.7852 693.173 18.7852 689.449C19.8431 689.449 20.9011 689.449 21.959 689.449C21.959 693.173 21.959 696.897 21.959 700.621Z" fill="white"/>
</g>
<g clip-path="url(#clip11_6688_645)">
<rect width="41" height="65" transform="translate(0 704)" fill="#E0E0E0"/>
<path fill-rule="evenodd" clip-rule="evenodd" d="M3.29688 703.938C14.6804 703.938 26.0638 703.938 37.4473 703.938C37.4473 725.604 37.4473 747.271 37.4473 768.938C26.0638 768.938 14.6804 768.938 3.29688 768.938C3.29688 747.271 3.29688 725.604 3.29688 703.938Z" fill="#DCDCDC"/>
<path fill-rule="evenodd" clip-rule="evenodd" d="M18.7872 708.254C18.7872 711.978 18.7872 715.702 18.7872 719.426C19.8451 719.426 20.9031 719.426 21.961 719.426C21.961 715.702 21.961 711.978 21.961 708.254C22.0877 711.998 22.13 715.765 22.088 719.553C20.9454 719.553 19.8028 719.553 18.6602 719.553C18.6182 715.765 18.6605 711.998 18.7872 708.254Z" fill="white"/>
<path fill-rule="evenodd" clip-rule="evenodd" d="M18.7852 708.254C19.8431 708.254 20.9011 708.254 21.959 708.254C21.959 711.978 21.959 715.702 21.959 719.426C20.9011 719.426 19.8431 719.426 18.7852 719.426C18.7852 715.702 18.7852 711.978 18.7852 708.254Z" fill="white"/>
<path fill-rule="evenodd" clip-rule="evenodd" d="M18.7852 723.359C19.8431 723.359 20.9011 723.359 21.959 723.359C21.959 727.083 21.959 730.807 21.959 734.531C20.9011 734.531 19.8431 734.531 18.7852 734.531C18.7852 730.807 18.7852 727.083 18.7852 723.359Z" fill="white"/>
<path fill-rule="evenodd" clip-rule="evenodd" d="M18.7852 738.34C19.8431 738.34 20.9011 738.34 21.959 738.34C21.959 742.064 21.959 745.788 21.959 749.512C20.9011 749.512 19.8431 749.512 18.7852 749.512C18.7852 745.788 18.7852 742.064 18.7852 738.34Z" fill="white"/>
<path fill-rule="evenodd" clip-rule="evenodd" d="M21.961 764.619C21.961 760.895 21.961 757.171 21.961 753.447C20.9031 753.447 19.8451 753.447 18.7872 753.447C18.7872 757.171 18.7872 760.895 18.7872 764.619C18.6605 760.875 18.6182 757.108 18.6602 753.32C19.8028 753.32 20.9454 753.32 22.088 753.32C22.13 757.108 22.0877 760.875 21.961 764.619Z" fill="white"/>
<path fill-rule="evenodd" clip-rule="evenodd" d="M21.959 764.621C20.9011 764.621 19.8431 764.621 18.7852 764.621C18.7852 760.897 18.7852 757.173 18.7852 753.449C19.8431 753.449 20.9011 753.449 21.959 753.449C21.959 757.173 21.959 760.897 21.959 764.621Z" fill="white"/>
</g>
<g clip-path="url(#clip12_6688_645)">
<rect width="41" height="65" transform="translate(0 768)" fill="#E0E0E0"/>
<path fill-rule="evenodd" clip-rule="evenodd" d="M3.29688 767.938C14.6804 767.938 26.0638 767.938 37.4473 767.938C37.4473 789.604 37.4473 811.271 37.4473 832.938C26.0638 832.938 14.6804 832.938 3.29688 832.938C3.29688 811.271 3.29688 789.604 3.29688 767.938Z" fill="#DCDCDC"/>
<path fill-rule="evenodd" clip-rule="evenodd" d="M18.7872 772.254C18.7872 775.978 18.7872 779.702 18.7872 783.426C19.8451 783.426 20.9031 783.426 21.961 783.426C21.961 779.702 21.961 775.978 21.961 772.254C22.0877 775.998 22.13 779.765 22.088 783.553C20.9454 783.553 19.8028 783.553 18.6602 783.553C18.6182 779.765 18.6605 775.998 18.7872 772.254Z" fill="white"/>
<path fill-rule="evenodd" clip-rule="evenodd" d="M18.7852 772.254C19.8431 772.254 20.9011 772.254 21.959 772.254C21.959 775.978 21.959 779.702 21.959 783.426C20.9011 783.426 19.8431 783.426 18.7852 783.426C18.7852 779.702 18.7852 775.978 18.7852 772.254Z" fill="white"/>
<path fill-rule="evenodd" clip-rule="evenodd" d="M18.7852 787.359C19.8431 787.359 20.9011 787.359 21.959 787.359C21.959 791.083 21.959 794.807 21.959 798.531C20.9011 798.531 19.8431 798.531 18.7852 798.531C18.7852 794.807 18.7852 791.083 18.7852 787.359Z" fill="white"/>
<path fill-rule="evenodd" clip-rule="evenodd" d="M18.7852 802.34C19.8431 802.34 20.9011 802.34 21.959 802.34C21.959 806.064 21.959 809.788 21.959 813.512C20.9011 813.512 19.8431 813.512 18.7852 813.512C18.7852 809.788 18.7852 806.064 18.7852 802.34Z" fill="white"/>
<path fill-rule="evenodd" clip-rule="evenodd" d="M21.961 828.619C21.961 824.895 21.961 821.171 21.961 817.447C20.9031 817.447 19.8451 817.447 18.7872 817.447C18.7872 821.171 18.7872 824.895 18.7872 828.619C18.6605 824.875 18.6182 821.108 18.6602 817.32C19.8028 817.32 20.9454 817.32 22.088 817.32C22.13 821.108 22.0877 824.875 21.961 828.619Z" fill="white"/>
<path fill-rule="evenodd" clip-rule="evenodd" d="M21.959 828.621C20.9011 828.621 19.8431 828.621 18.7852 828.621C18.7852 824.897 18.7852 821.173 18.7852 817.449C19.8431 817.449 20.9011 817.449 21.959 817.449C21.959 821.173 21.959 824.897 21.959 828.621Z" fill="white"/>
</g>
<g clip-path="url(#clip13_6688_645)">
<rect width="41" height="65" transform="translate(0 832)" fill="#E0E0E0"/>
<path fill-rule="evenodd" clip-rule="evenodd" d="M3.29688 831.938C14.6804 831.938 26.0638 831.938 37.4473 831.938C37.4473 853.604 37.4473 875.271 37.4473 896.938C26.0638 896.938 14.6804 896.938 3.29688 896.938C3.29688 875.271 3.29688 853.604 3.29688 831.938Z" fill="#DCDCDC"/>
<path fill-rule="evenodd" clip-rule="evenodd" d="M18.7872 836.254C18.7872 839.978 18.7872 843.702 18.7872 847.426C19.8451 847.426 20.9031 847.426 21.961 847.426C21.961 843.702 21.961 839.978 21.961 836.254C22.0877 839.998 22.13 843.765 22.088 847.553C20.9454 847.553 19.8028 847.553 18.6602 847.553C18.6182 843.765 18.6605 839.998 18.7872 836.254Z" fill="white"/>
<path fill-rule="evenodd" clip-rule="evenodd" d="M18.7852 836.254C19.8431 836.254 20.9011 836.254 21.959 836.254C21.959 839.978 21.959 843.702 21.959 847.426C20.9011 847.426 19.8431 847.426 18.7852 847.426C18.7852 843.702 18.7852 839.978 18.7852 836.254Z" fill="white"/>
<path fill-rule="evenodd" clip-rule="evenodd" d="M18.7852 851.359C19.8431 851.359 20.9011 851.359 21.959 851.359C21.959 855.083 21.959 858.807 21.959 862.531C20.9011 862.531 19.8431 862.531 18.7852 862.531C18.7852 858.807 18.7852 855.083 18.7852 851.359Z" fill="white"/>
<path fill-rule="evenodd" clip-rule="evenodd" d="M18.7852 866.34C19.8431 866.34 20.9011 866.34 21.959 866.34C21.959 870.064 21.959 873.788 21.959 877.512C20.9011 877.512 19.8431 877.512 18.7852 877.512C18.7852 873.788 18.7852 870.064 18.7852 866.34Z" fill="white"/>
<path fill-rule="evenodd" clip-rule="evenodd" d="M21.961 892.619C21.961 888.895 21.961 885.171 21.961 881.447C20.9031 881.447 19.8451 881.447 18.7872 881.447C18.7872 885.171 18.7872 888.895 18.7872 892.619C18.6605 888.875 18.6182 885.108 18.6602 881.32C19.8028 881.32 20.9454 881.32 22.088 881.32C22.13 885.108 22.0877 888.875 21.961 892.619Z" fill="white"/>
<path fill-rule="evenodd" clip-rule="evenodd" d="M21.959 892.621C20.9011 892.621 19.8431 892.621 18.7852 892.621C18.7852 888.897 18.7852 885.173 18.7852 881.449C19.8431 881.449 20.9011 881.449 21.959 881.449C21.959 885.173 21.959 888.897 21.959 892.621Z" fill="white"/>
</g>
<g clip-path="url(#clip14_6688_645)">
<rect width="41" height="65" transform="translate(0 896)" fill="#E0E0E0"/>
<path fill-rule="evenodd" clip-rule="evenodd" d="M3.29688 895.938C14.6804 895.938 26.0638 895.938 37.4473 895.938C37.4473 917.604 37.4473 939.271 37.4473 960.938C26.0638 960.938 14.6804 960.938 3.29688 960.938C3.29688 939.271 3.29688 917.604 3.29688 895.938Z" fill="#DCDCDC"/>
<path fill-rule="evenodd" clip-rule="evenodd" d="M18.7872 900.254C18.7872 903.978 18.7872 907.702 18.7872 911.426C19.8451 911.426 20.9031 911.426 21.961 911.426C21.961 907.702 21.961 903.978 21.961 900.254C22.0877 903.998 22.13 907.765 22.088 911.553C20.9454 911.553 19.8028 911.553 18.6602 911.553C18.6182 907.765 18.6605 903.998 18.7872 900.254Z" fill="white"/>
<path fill-rule="evenodd" clip-rule="evenodd" d="M18.7852 900.254C19.8431 900.254 20.9011 900.254 21.959 900.254C21.959 903.978 21.959 907.702 21.959 911.426C20.9011 911.426 19.8431 911.426 18.7852 911.426C18.7852 907.702 18.7852 903.978 18.7852 900.254Z" fill="white"/>
<path fill-rule="evenodd" clip-rule="evenodd" d="M18.7852 915.359C19.8431 915.359 20.9011 915.359 21.959 915.359C21.959 919.083 21.959 922.807 21.959 926.531C20.9011 926.531 19.8431 926.531 18.7852 926.531C18.7852 922.807 18.7852 919.083 18.7852 915.359Z" fill="white"/>
<path fill-rule="evenodd" clip-rule="evenodd" d="M18.7852 930.34C19.8431 930.34 20.9011 930.34 21.959 930.34C21.959 934.064 21.959 937.788 21.959 941.512C20.9011 941.512 19.8431 941.512 18.7852 941.512C18.7852 937.788 18.7852 934.064 18.7852 930.34Z" fill="white"/>
<path fill-rule="evenodd" clip-rule="evenodd" d="M21.961 956.619C21.961 952.895 21.961 949.171 21.961 945.447C20.9031 945.447 19.8451 945.447 18.7872 945.447C18.7872 949.171 18.7872 952.895 18.7872 956.619C18.6605 952.875 18.6182 949.108 18.6602 945.32C19.8028 945.32 20.9454 945.32 22.088 945.32C22.13 949.108 22.0877 952.875 21.961 956.619Z" fill="white"/>
<path fill-rule="evenodd" clip-rule="evenodd" d="M21.959 956.621C20.9011 956.621 19.8431 956.621 18.7852 956.621C18.7852 952.897 18.7852 949.173 18.7852 945.449C19.8431 945.449 20.9011 945.449 21.959 945.449C21.959 949.173 21.959 952.897 21.959 956.621Z" fill="white"/>
</g>
<g clip-path="url(#clip15_6688_645)">
<path d="M0 960H41V1017C41 1021.42 37.4183 1025 33 1025H8C3.58172 1025 0 1021.42 0 1017V960Z" fill="#E0E0E0"/>
<path fill-rule="evenodd" clip-rule="evenodd" d="M3.29688 959.938C14.6804 959.938 26.0638 959.938 37.4473 959.938C37.4473 981.604 37.4473 1003.27 37.4473 1024.94C26.0638 1024.94 14.6804 1024.94 3.29688 1024.94C3.29688 1003.27 3.29688 981.604 3.29688 959.938Z" fill="#DCDCDC"/>
<path fill-rule="evenodd" clip-rule="evenodd" d="M18.7872 964.254C18.7872 967.978 18.7872 971.702 18.7872 975.426C19.8451 975.426 20.9031 975.426 21.961 975.426C21.961 971.702 21.961 967.978 21.961 964.254C22.0877 967.998 22.13 971.765 22.088 975.553C20.9454 975.553 19.8028 975.553 18.6602 975.553C18.6182 971.765 18.6605 967.998 18.7872 964.254Z" fill="white"/>
<path fill-rule="evenodd" clip-rule="evenodd" d="M18.7852 964.254C19.8431 964.254 20.9011 964.254 21.959 964.254C21.959 967.978 21.959 971.702 21.959 975.426C20.9011 975.426 19.8431 975.426 18.7852 975.426C18.7852 971.702 18.7852 967.978 18.7852 964.254Z" fill="white"/>
<path fill-rule="evenodd" clip-rule="evenodd" d="M18.7852 979.359C19.8431 979.359 20.9011 979.359 21.959 979.359C21.959 983.083 21.959 986.807 21.959 990.531C20.9011 990.531 19.8431 990.531 18.7852 990.531C18.7852 986.807 18.7852 983.083 18.7852 979.359Z" fill="white"/>
<path fill-rule="evenodd" clip-rule="evenodd" d="M18.7852 994.34C19.8431 994.34 20.9011 994.34 21.959 994.34C21.959 998.064 21.959 1001.79 21.959 1005.51C20.9011 1005.51 19.8431 1005.51 18.7852 1005.51C18.7852 1001.79 18.7852 998.064 18.7852 994.34Z" fill="white"/>
<path fill-rule="evenodd" clip-rule="evenodd" d="M21.961 1020.62C21.961 1016.9 21.961 1013.17 21.961 1009.45C20.9031 1009.45 19.8451 1009.45 18.7872 1009.45C18.7872 1013.17 18.7872 1016.9 18.7872 1020.62C18.6605 1016.87 18.6182 1013.11 18.6602 1009.32C19.8028 1009.32 20.9454 1009.32 22.088 1009.32C22.13 1013.11 22.0877 1016.87 21.961 1020.62Z" fill="white"/>
<path fill-rule="evenodd" clip-rule="evenodd" d="M21.959 1020.62C20.9011 1020.62 19.8431 1020.62 18.7852 1020.62C18.7852 1016.9 18.7852 1013.17 18.7852 1009.45C19.8431 1009.45 20.9011 1009.45 21.959 1009.45C21.959 1013.17 21.959 1016.9 21.959 1020.62Z" fill="white"/>
</g>
<defs>
<clipPath id="clip0_6688_645">
<path d="M0 8C0 3.58172 3.58172 0 8 0H33C37.4183 0 41 3.58172 41 8V65H0V8Z" fill="white"/>
</clipPath>
<clipPath id="clip1_6688_645">
<rect width="41" height="65" fill="white" transform="translate(0 64)"/>
</clipPath>
<clipPath id="clip2_6688_645">
<rect width="41" height="65" fill="white" transform="translate(0 128)"/>
</clipPath>
<clipPath id="clip3_6688_645">
<rect width="41" height="65" fill="white" transform="translate(0 192)"/>
</clipPath>
<clipPath id="clip4_6688_645">
<rect width="41" height="65" fill="white" transform="translate(0 256)"/>
</clipPath>
<clipPath id="clip5_6688_645">
<rect width="41" height="65" fill="white" transform="translate(0 320)"/>
</clipPath>
<clipPath id="clip6_6688_645">
<rect width="41" height="65" fill="white" transform="translate(0 384)"/>
</clipPath>
<clipPath id="clip7_6688_645">
<rect width="41" height="65" fill="white" transform="translate(0 448)"/>
</clipPath>
<clipPath id="clip8_6688_645">
<rect width="41" height="65" fill="white" transform="translate(0 512)"/>
</clipPath>
<clipPath id="clip9_6688_645">
<rect width="41" height="65" fill="white" transform="translate(0 576)"/>
</clipPath>
<clipPath id="clip10_6688_645">
<rect width="41" height="65" fill="white" transform="translate(0 640)"/>
</clipPath>
<clipPath id="clip11_6688_645">
<rect width="41" height="65" fill="white" transform="translate(0 704)"/>
</clipPath>
<clipPath id="clip12_6688_645">
<rect width="41" height="65" fill="white" transform="translate(0 768)"/>
</clipPath>
<clipPath id="clip13_6688_645">
<rect width="41" height="65" fill="white" transform="translate(0 832)"/>
</clipPath>
<clipPath id="clip14_6688_645">
<rect width="41" height="65" fill="white" transform="translate(0 896)"/>
</clipPath>
<clipPath id="clip15_6688_645">
<path d="M0 960H41V1017C41 1021.42 37.4183 1025 33 1025H8C3.58172 1025 0 1021.42 0 1017V960Z" fill="white"/>
</clipPath>
</defs>
</svg>
