<svg width="24" height="24" viewBox="0 0 24 24" fill="none" xmlns="http://www.w3.org/2000/svg">
<path d="M4.24414 5.91598V3.76066C4.24414 3.16575 4.7263 2.68359 5.3212 2.68359H6.20396M13.2049 5.91598V3.76066C13.2049 3.16575 12.7227 2.68359 12.1278 2.68359H11.245" stroke="#444444" stroke-miterlimit="10" stroke-linecap="round"/>
<path d="M8.65039 12.2106L8.72475 16.9122C8.70916 19.4898 10.729 21.6043 13.1577 21.7302C15.7604 21.8658 18.0945 19.6805 18.0861 16.9122C18.0861 14.7209 18.0861 12.1698 18.0861 9.97852" stroke="#555555" stroke-miterlimit="10" stroke-linecap="round"/>
<path d="M8.63281 11.0449L8.6508 12.2095" stroke="#444444" stroke-miterlimit="10" stroke-linecap="round"/>
<path d="M13.2049 6.43164C13.2049 9.01515 11.2294 11.0445 8.63275 11.0445C6.03724 11.0445 4.24414 9.01515 4.24414 6.43164" stroke="#555555" stroke-miterlimit="10" stroke-linecap="round"/>
<path d="M18.0857 9.97636C19.1038 9.97636 19.9291 9.1553 19.9291 8.14248C19.9291 7.12965 19.1038 6.30859 18.0857 6.30859C17.0675 6.30859 16.2422 7.12965 16.2422 8.14248C16.2422 9.1553 17.0675 9.97636 18.0857 9.97636Z" stroke="#555555" stroke-miterlimit="10"/>
<path d="M7.18639 3.03878C7.18639 3.13953 7.09404 3.21509 6.99569 3.19471L6.22447 3.03638C6.03017 3.03638 5.87305 2.87926 5.87305 2.68496C5.87305 2.49066 6.03017 2.33354 6.22447 2.33354L6.99569 2.17521C7.09404 2.15483 7.18639 2.23039 7.18639 2.33114V3.03998V3.03878ZM10.1897 3.03878C10.1897 3.13953 10.282 3.21509 10.3804 3.19471L11.1516 3.03638C11.3459 3.03638 11.503 2.87926 11.503 2.68496C11.503 2.49066 11.3459 2.33354 11.1516 2.33354L10.3804 2.17521C10.282 2.15483 10.1897 2.23039 10.1897 2.33114V3.03998V3.03878Z" fill="#555555"/>
</svg>
