<svg width="24" height="24" viewBox="0 0 24 24" fill="none" xmlns="http://www.w3.org/2000/svg">
<path d="M11.3251 12.6697C10.6865 12.6697 10.1641 12.1472 10.1641 11.5087C10.1641 10.8701 10.6865 10.3477 11.3251 10.3477C11.9636 10.3477 12.4861 10.8701 12.4861 11.5087C12.4861 12.1472 11.9636 12.6697 11.3251 12.6697Z" fill="#808080"/>
<path d="M11.6106 16.69C12.9578 16.69 14.2497 16.1549 15.2023 15.2023C16.1549 14.2497 16.69 12.9578 16.69 11.6106C16.69 10.2635 16.1549 8.97153 15.2023 8.01896C14.2497 7.0664 12.9578 6.53125 11.6106 6.53125C10.2635 6.53125 8.97153 7.0664 8.01896 8.01896C7.0664 8.97153 6.53125 10.2635 6.53125 11.6106C6.53125 12.9578 7.0664 14.2497 8.01896 15.2023C8.97153 16.1549 10.2635 16.69 11.6106 16.69ZM11.6106 8.34531C13.3884 8.36708 14.8324 9.85461 14.8324 11.6469V12.2347C14.8324 12.8805 14.3027 13.4102 13.6569 13.4102C13.2143 13.4102 12.8297 13.1635 12.6265 12.8006C12.2927 13.1344 11.8283 13.3449 11.3204 13.3449C10.3045 13.3449 9.47729 12.5177 9.47729 11.5018C9.47729 10.4859 10.3045 9.65869 11.3204 9.65869C11.763 9.65869 12.1621 9.81833 12.4814 10.0723V10.007C12.4814 9.81833 12.6483 9.66595 12.8369 9.66595C13.0256 9.66595 13.178 9.81833 13.178 10.007V12.2419C13.178 12.3709 13.2292 12.4945 13.3204 12.5857C13.4115 12.6769 13.5352 12.7281 13.6641 12.7281C13.7931 12.7281 13.9167 12.6769 14.0079 12.5857C14.0991 12.4945 14.1503 12.3709 14.1503 12.2419V11.6542C14.1503 10.2247 13.0038 9.04917 11.6034 9.0274C10.9068 9.0274 10.2464 9.28863 9.75302 9.77479C9.2596 10.261 8.98386 10.914 8.98386 11.6106C8.98386 13.0328 10.1449 14.1938 11.5671 14.1938C11.6575 14.1938 11.7443 14.2298 11.8082 14.2937C11.8722 14.3577 11.9081 14.4444 11.9081 14.5349C11.9081 14.6253 11.8722 14.7121 11.8082 14.776C11.7443 14.84 11.6575 14.8759 11.5671 14.8759C9.76754 14.8759 8.30177 13.4102 8.30177 11.6106C8.30177 10.7326 8.64282 9.90541 9.27411 9.28863C9.89815 8.66459 10.7326 8.3308 11.6106 8.34531Z" fill="#808080"/>
<path d="M0.726564 5.08741C0.726564 4.28052 1.37818 3.62891 2.18507 3.62891H21.0441C21.8488 3.62891 22.4953 4.28487 22.4953 5.08741V18.1414C22.4953 18.9461 21.8393 19.5927 21.0368 19.5927H2.18507C1.99346 19.5929 1.80367 19.5554 1.62659 19.4822C1.4495 19.409 1.2886 19.3016 1.15311 19.1661C1.01762 19.0306 0.910198 18.8697 0.837003 18.6926C0.763807 18.5156 0.726277 18.3258 0.726564 18.1341V5.08741ZM2.17781 5.08378V5.44442L6.78553 8.3803C6.51339 8.78569 6.29348 9.2238 6.13102 9.68425L2.17781 7.16488V16.458L6.25583 13.8595C6.44412 14.3074 6.6879 14.7298 6.98145 15.117L2.23586 18.1414H20.9969L16.239 15.1134C16.5326 14.7258 16.7764 14.3028 16.9646 13.8544L21.0441 16.4514V7.16996L17.088 9.68788C16.926 9.22725 16.7066 8.7889 16.4349 8.3832L21.0441 5.45095V5.08233L21.0412 5.08016H2.18144L2.17927 5.08161L2.17781 5.08378Z" fill="#808080"/>
</svg>
