<svg width="21" height="21" viewBox="0 0 21 21" fill="none" xmlns="http://www.w3.org/2000/svg">
<g clip-path="url(#clip0_8501_4076)">
<path d="M18.3269 4.63601H15.2627C15.2039 4.63602 15.1462 4.61907 15.0968 4.58719C15.0473 4.55531 15.008 4.50984 14.9837 4.45624C14.9594 4.40264 14.9511 4.34316 14.9597 4.28494C14.9683 4.22671 14.9935 4.1722 15.0323 4.12792L17.8188 0.942845C17.8576 0.898402 17.9091 0.866879 17.9664 0.852492C18.0236 0.838104 18.0839 0.841539 18.1391 0.862335C18.1944 0.883132 18.242 0.9203 18.2755 0.968868C18.3091 1.01744 18.327 1.07509 18.3269 1.13412V4.63601ZM18.3269 4.63601H19.1695M18.3269 4.63601V5.89993M0.835938 5.89993C0.835938 3.57306 2.72255 1.68687 5.049 1.68687H5.28914C5.54172 1.68691 5.7885 1.76263 5.99764 1.90426C6.20678 2.04589 6.36869 2.24693 6.46248 2.48145L7.50142 5.07881C7.62388 5.38504 7.65379 5.72049 7.58743 6.04356C7.52108 6.36663 7.36139 6.66313 7.12814 6.89632L5.8322 8.19268C5.6245 8.40038 5.53687 8.70246 5.62197 8.98389C6.02614 10.3074 6.74927 11.5113 7.7278 12.4899C8.70632 13.4684 9.91026 14.1915 11.2338 14.5957C11.5152 14.6812 11.8173 14.5936 12.0254 14.3859L13.3213 13.0895C13.5546 12.8563 13.8511 12.6967 14.1742 12.6304C14.4972 12.5642 14.8327 12.5941 15.1389 12.7167L17.7366 13.7556C17.9711 13.8495 18.172 14.0114 18.3136 14.2205C18.4551 14.4297 18.5308 14.6764 18.5308 14.9289V15.1687C18.5308 17.4955 16.6446 19.3817 14.3177 19.3817H14.1071C6.89853 19.3817 1.03227 13.6343 0.840993 6.47206C0.840855 6.46999 0.839955 6.46804 0.838465 6.46659C0.836976 6.46514 0.836075 6.46319 0.835938 6.46111V5.89993Z" stroke="#808080" stroke-width="1.30638" stroke-linecap="round" stroke-linejoin="round"/>
<path d="M13.2689 5.89942H9.89844V5.18109C9.89846 4.93542 9.97008 4.69507 10.1045 4.48945C10.239 4.28384 10.4305 4.12186 10.6555 4.02335L12.5312 3.20264C12.7902 3.08932 13.0023 2.8903 13.1319 2.63902C13.2615 2.38774 13.3006 2.09952 13.2427 1.82279C13.1848 1.54606 13.0335 1.29768 12.8141 1.11939C12.5946 0.941104 12.3205 0.843771 12.0378 0.84375H11.1624C10.9009 0.843613 10.6458 0.92458 10.4322 1.07549C10.2187 1.2264 10.0572 1.43983 9.97006 1.68636" stroke="#808080" stroke-width="1.30638" stroke-linecap="round" stroke-linejoin="round"/>
</g>
<defs>
<clipPath id="clip0_8501_4076">
<rect width="20.2227" height="20.2227" fill="white"/>
</clipPath>
</defs>
</svg>
