<svg width="16" height="16" viewBox="0 0 16 16" fill="none" xmlns="http://www.w3.org/2000/svg">
<path fill-rule="evenodd" clip-rule="evenodd" d="M13.1868 2.94938C13.3515 2.88006 13.5317 2.85615 13.7088 2.88015C13.8859 2.90414 14.0533 2.97515 14.1936 3.08579C14.3339 3.19643 14.442 3.34265 14.5066 3.50924C14.5712 3.67583 14.59 3.85669 14.561 4.033L13.0495 13.2012C12.9029 14.0855 11.9326 14.5927 11.1215 14.1522C10.4431 13.7836 9.43543 13.2158 8.52907 12.6234C8.0759 12.3268 6.68771 11.3771 6.85832 10.7014C7.00493 10.1236 9.33746 7.95231 10.6703 6.66143C11.1935 6.15427 10.9549 5.8617 10.3371 6.32821C8.80298 7.48647 6.33983 9.24787 5.52544 9.74369C4.80703 10.1809 4.43249 10.2555 3.98464 10.1809C3.16759 10.0449 2.40985 9.83433 1.7914 9.57775C0.95569 9.23121 0.996343 8.08227 1.79073 7.74772L13.1868 2.94938Z" fill="white"/>
</svg>
