<svg width="19" height="19" viewBox="0 0 19 19" fill="none" xmlns="http://www.w3.org/2000/svg">
<g clip-path="url(#clip0_8501_4058)">
<path d="M9.3111 0C6.8422 0 4.47224 0.981593 2.72786 2.72713C0.981698 4.47337 0.000499669 6.84159 0 9.3111C0 11.7796 0.98203 14.1495 2.72786 15.8951C4.47224 17.6406 6.8422 18.6222 9.3111 18.6222C11.78 18.6222 14.15 17.6406 15.8943 15.8951C17.6402 14.1495 18.6222 11.7796 18.6222 9.3111C18.6222 6.84264 17.6402 4.47267 15.8943 2.72713C14.15 0.981593 11.78 0 9.3111 0Z" fill="url(#paint0_linear_8501_4058)"/>
<path d="M4.21844 9.21306C6.93321 8.03056 8.74305 7.25094 9.64797 6.87423C12.2347 5.79866 12.7716 5.61185 13.1222 5.60552C13.1993 5.60429 13.371 5.62335 13.483 5.71391C13.5761 5.79029 13.6023 5.89359 13.6154 5.96611C13.627 6.03856 13.643 6.20369 13.6299 6.33259C13.4903 7.80491 12.8836 11.3777 12.5752 13.0268C12.4457 13.7246 12.1882 13.9585 11.9394 13.9814C11.3982 14.0311 10.9879 13.6241 10.4642 13.2808C9.64507 12.7436 9.18242 12.4092 8.38661 11.8851C7.46714 11.2793 8.06363 10.9462 8.58738 10.4021C8.72414 10.2597 11.1072 8.09268 11.1523 7.89613C11.1581 7.87154 11.1639 7.77988 11.1087 7.73158C11.0548 7.68313 10.9748 7.69972 10.9166 7.71281C10.8337 7.73144 9.52577 8.59679 6.98849 10.3087C6.6175 10.5639 6.28143 10.6883 5.97882 10.6817C5.64711 10.6746 5.00698 10.4938 4.53124 10.3393C3.94929 10.1497 3.48519 10.0495 3.52593 9.7275C3.5463 9.5599 3.77762 9.38838 4.21844 9.21306Z" fill="white"/>
</g>
<defs>
<linearGradient id="paint0_linear_8501_4058" x1="931.11" y1="0" x2="931.11" y2="1862.22" gradientUnits="userSpaceOnUse">
<stop stop-color="#2AABEE"/>
<stop offset="1" stop-color="#229ED9"/>
</linearGradient>
<clipPath id="clip0_8501_4058">
<rect width="18.6222" height="18.6222" fill="white"/>
</clipPath>
</defs>
</svg>
